<svg width="51" height="51" fill="none" xmlns="http://www.w3.org/2000/svg"><path d="M4.916 13.616L25.5 1.732l20.584 11.884v23.768L25.5 49.268 4.916 37.384V13.616z" stroke="#6132E4" stroke-width="3"/><path d="M22.35 19.5l-.447.894.005.003.442-.897zm2.6 2.35l-.855.519.004.006.851-.525zm-.025 7.05l-.86-.51.86.51zm-2.675 2.525l-.473-.881.473.881zm-7.725.1l-.447.894.005.003.442-.897zm-2.6-2.325l-.855.519.005.008.005.008.845-.535zm.025-7.075l.86.51-.86-.51zM14.6 19.6l-.473-.881-.005.003.478.878zm2.35.325l-.788-.616-.003.004.791.612zm-.95 2.25l-.973-.23-.003.011.976.219zm.475 8.175l-.889.459.889-.459zm3.425.775l-.788-.616-.003.004.791.612zm.95-2.275l-.973-.23-.002.007-.002.008.977.215zm-.45-8.175l-.889.459.004.006.885-.465zm-1.825-1c1.285 0 2.386.249 3.328.72l.894-1.79c-1.258-.629-2.674-.93-4.222-.93v2zm3.333.722c.954.47 1.674 1.126 2.187 1.972l1.71-1.038c-.72-1.187-1.734-2.098-3.013-2.728l-.884 1.794zm2.19 1.978c.51.826.777 1.79.777 2.925h2c0-1.465-.35-2.8-1.074-3.975l-1.702 1.05zm.777 2.925c0 1.168-.275 2.189-.81 3.09l1.72 1.02c.732-1.232 1.09-2.61 1.09-4.11h-2zm-.81 3.09c-.535.901-1.29 1.618-2.288 2.154l.946 1.762c1.301-.698 2.33-1.664 3.062-2.895l-1.72-1.021zm-2.288 2.154c-.985.528-2.136.806-3.477.806v2c1.625 0 3.108-.339 4.423-1.044l-.946-1.762zm-3.477.806c-1.266 0-2.37-.248-3.333-.722l-.884 1.794c1.27.626 2.683.928 4.217.928v-2zm-3.328-.72c-.944-.471-1.67-1.125-2.202-1.965l-1.69 1.07c.735 1.16 1.742 2.056 2.998 2.684l.894-1.788zm-2.192-1.949c-.512-.844-.78-1.827-.78-2.981h-2c0 1.48.348 2.83 1.07 4.019l1.71-1.038zM12 25.7c0-1.148.274-2.162.81-3.064l-1.72-1.021c-.73 1.23-1.09 2.6-1.09 4.085h2zm.81-3.064c.537-.906 1.286-1.623 2.268-2.158l-.956-1.756c-1.285.699-2.303 1.665-3.032 2.892l1.72 1.021zm2.263-2.155c.984-.528 2.142-.806 3.502-.806v-2c-1.64 0-3.132.338-4.448 1.044l.946 1.762zm3.277-2.356c-.915 0-1.646.49-2.188 1.184l1.576 1.232c.29-.373.494-.416.612-.416v-2zm-2.19 1.188c-.523.674-.883 1.577-1.133 2.631l1.946.462c.217-.913.49-1.51.768-1.869l-1.582-1.224zm-1.136 2.643c-.237 1.059-.349 2.286-.349 3.669h2c0-1.283.105-2.356.3-3.231l-1.95-.438zm-.349 3.669c0 2.166.267 3.935.911 5.184l1.778-.918c-.423-.818-.689-2.198-.689-4.266h-2zm.911 5.184c.628 1.215 1.588 2.091 2.939 2.091v-2c-.316 0-.722-.157-1.161-1.009l-1.778.918zm2.939 2.091c.906 0 1.631-.473 2.166-1.163l-1.582-1.224c-.265.343-.457.387-.584.387v2zm2.163-1.16c.542-.694.904-1.61 1.139-2.675l-1.954-.43c-.199.902-.47 1.502-.761 1.874l1.576 1.232zm1.135-2.66c.256-1.078.377-2.317.377-3.705h-2c0 1.279-.112 2.356-.323 3.244l1.946.462zm.377-3.705c0-2.164-.266-3.93-.915-5.165l-1.77.93c.418.797.685 2.165.685 4.235h2zm-.911-5.159c-.628-1.215-1.588-2.091-2.939-2.091v2c.316 0 .722.157 1.161 1.009l1.778-.918zm15.456-.766l-.505.863.505-.863zm-.25 4.725l.588.81.002-.002-.59-.808zm-4.4 1.525l-.139-.99.222 1.986-.083-.996zm5.25 1.025l-.543.84.01.006.533-.846zm-.075 6.05l-.642-.766-.007.005.65.761zm-9.8 3h-1v1h1v-1zm0-.525l-.047-.999-.953.046v.953h1zm3.15-.75l-.389-.921-.005.002.394.919zm2.65-1.95l-.758-.652-.007.008-.007.008.772.636zm.375-5.4l-.805.593.008.01.797-.603zm-1.9-1.05l.083-.997-.258-.021-.235.106.41.912zm-.8.325l-.316-.949-.013.005-.013.004.342.94zm-.95.025l-.625.78.053.043.058.035.514-.858zm.125-.75l.447.894.035-.017.033-.02-.515-.857zm1.125-.125l-.11.994.11-.994zm.4.05l-.141.99.371.053.315-.204-.545-.839zm1.325-4.8l-.691.723.008.007.007.007.676-.737zm-3.475-.075l.479.878.009-.005-.488-.873zm-1.4 1.3l-.485.874.8.445.513-.759-.828-.56zm-.45-.25l-.859-.512-.528.885.902.501.485-.874zm2.175-2.275l.54.842-.54-.842zm3.525.15c1.266 0 2.21.237 2.895.638l1.01-1.726c-1.081-.633-2.404-.912-3.905-.912v2zm2.895.638c.627.367.83.772.83 1.262h2c0-1.31-.68-2.322-1.82-2.988l-1.01 1.726zm.83 1.262c0 .544-.276 1.143-1.165 1.792l1.18 1.616c1.211-.885 1.985-2.019 1.985-3.408h-2zm-1.162 1.79c-.851.618-2.14 1.09-3.952 1.345l.278 1.98c1.987-.279 3.633-.823 4.849-1.706l-1.175-1.618zm-3.73 3.332a10 10 0 01.792-.022v-2c-.39 0-.716.008-.958.028l.166 1.994zm.792-.022c1.718 0 2.965.33 3.832.89l1.086-1.68c-1.3-.84-2.97-1.21-4.918-1.21v2zm3.842.896c.821.518 1.158 1.147 1.158 1.954h2c0-1.56-.746-2.797-2.091-3.646l-1.067 1.692zm1.158 1.954c0 .857-.382 1.679-1.342 2.484l1.285 1.532c1.306-1.095 2.057-2.44 2.057-4.016h-2zm-1.349 2.49c-1.002.854-2.325 1.538-4.004 2.024l.556 1.922c1.887-.547 3.482-1.347 4.746-2.425l-1.298-1.522zm-4.004 2.024a18.397 18.397 0 01-5.147.736v2c1.929 0 3.83-.272 5.703-.814l-.556-1.922zm-4.147 1.736v-.525h-2v.525h2zm-.952.474c1.179-.056 2.346-.337 3.496-.83l-.788-1.838c-.95.407-1.883.626-2.803.67l.095 1.998zm3.49-.828c1.209-.51 2.226-1.254 3.034-2.235l-1.544-1.272c-.592.719-1.341 1.274-2.267 1.665l.778 1.842zm3.02-2.219c.883-1.026 1.317-2.262 1.317-3.652h-2c0 .943-.282 1.708-.833 2.348l1.516 1.304zm1.317-3.652c0-1.141-.272-2.17-.902-3.003l-1.595 1.206c.303.401.497.972.497 1.797h2zm-.895-2.993c-.642-.871-1.541-1.363-2.622-1.453l-.166 1.992c.52.044.887.252 1.178.647l1.61-1.186zm-3.115-1.369a8.117 8.117 0 01-.706.288l.632 1.898c.247-.083.55-.207.895-.362l-.821-1.824zm-.732.297a.67.67 0 01-.233.04v2c.314 0 .621-.053.917-.16l-.684-1.88zm-.233.04c-.036 0-.04-.003-.023 0 .017.004.08.018.163.068l-1.03 1.715c.314.188.656.217.89.217v-2zm.25.144a.698.698 0 01.215.29.477.477 0 01.035.166h-2c0 .324.094.781.5 1.106l1.25-1.562zm.25.456a.566.566 0 01-.303.47l-.894-1.79a1.435 1.435 0 00-.803 1.32h2zm-.235.433c-.037.021-.015-.008.135-.008v-2c-.383 0-.795.07-1.164.293l1.029 1.715zm.135-.008c.134 0 .255.007.365.019l.22-1.988a5.315 5.315 0 00-.585-.031v2zm.365.019c.142.016.265.031.369.046l.282-1.98a17.903 17.903 0 00-.43-.054l-.221 1.988zm1.055-.105c1.504-.977 2.38-2.323 2.38-4.014h-2c0 .876-.407 1.646-1.47 2.336l1.09 1.678zm2.38-4.014c0-.902-.257-1.75-.924-2.362l-1.352 1.474c.133.122.276.357.276.888h2zm-.909-2.348c-.627-.6-1.459-.827-2.34-.827v2c.55 0 .818.139.958.273l1.382-1.446zm-2.34-.827c-.821 0-1.598.202-2.314.602l.976 1.746a2.683 2.683 0 011.337-.348v-2zm-2.305.597a4.994 4.994 0 00-1.75 1.618l1.657 1.12a2.998 2.998 0 011.051-.982l-.958-1.756zm-.435 1.304l-.45-.25-.971 1.748.45.25.97-1.748zm-.077 1.136a5.78 5.78 0 011.856-1.945l-1.08-1.684a7.778 7.778 0 00-2.494 2.605l1.718 1.024zm1.856-1.945c.67-.43 1.637-.692 2.985-.692v-2c-1.585 0-2.968.305-4.065 1.008l1.08 1.684z" fill="#936DFF"/></svg>