<svg width="51" height="51" fill="none" xmlns="http://www.w3.org/2000/svg"><path d="M4.916 13.616L25.5 1.732l20.584 11.884v23.768L25.5 49.268 4.916 37.384V13.616z" stroke="#6132E4" stroke-width="3"/><path d="M22.35 19.5l-.453.892.006.002.447-.894zm2.575 2.325l-.851.525.005.008.005.008.841-.541zm0 7.075l-.86-.51.86.51zm-2.65 2.525l.478.878-.478-.878zm-7.725.1l.447-.894-.447.894zm-2.6-2.325l-.845.535.845-.535zm-.025-7.05l-.86-.51-.002.004.862.506zm2.65-2.525l.478.878.004-.002-.482-.876zm1.85 1.225l-.912-.41-.005.011.917.399zm-.35 8.425l-.961.275v.004l.961-.279zm1.05 2l.693-.72-.693.72zm3.325-1.1l.917.399.002-.005-.919-.394zm-.7-10.425l-.707.707.007.007.007.007.693-.721zm-1.175-.075c1.304 0 2.402.25 3.322.717l.906-1.784c-1.247-.633-2.666-.933-4.228-.933v2zm3.328.72c.942.47 1.657 1.12 2.17 1.955l1.703-1.05c-.719-1.166-1.72-2.065-2.979-2.694l-.894 1.788zm2.181 1.971c.516.8.791 1.765.791 2.934h2c0-1.498-.358-2.85-1.11-4.017l-1.68 1.083zm.791 2.934c0 1.168-.275 2.189-.81 3.09l1.72 1.02c.732-1.232 1.09-2.61 1.09-4.11h-2zm-.81 3.09c-.538.905-1.286 1.622-2.268 2.157l.956 1.756c1.285-.699 2.303-1.665 3.032-2.892l-1.72-1.021zm-2.268 2.157c-.963.523-2.118.803-3.497.803v2c1.654 0 3.15-.337 4.453-1.047l-.956-1.756zm-3.497.803c-1.266 0-2.36-.248-3.303-.72l-.894 1.79c1.257.628 2.663.93 4.197.93v-2zm-3.303-.72c-.944-.471-1.67-1.125-2.202-1.965l-1.69 1.07c.735 1.16 1.742 2.056 2.998 2.684l.894-1.788zm-2.202-1.965c-.52-.82-.795-1.796-.795-2.965h-2c0 1.498.358 2.855 1.105 4.035l1.69-1.07zM12 25.7c0-1.154.268-2.16.787-3.044l-1.724-1.012C10.349 22.86 10 24.22 10 25.7h2zm.785-3.04c.537-.905 1.286-1.622 2.268-2.157l-.956-1.756c-1.285.699-2.303 1.665-3.032 2.893l1.72 1.02zm2.272-2.16c.981-.54 2.144-.825 3.518-.825v-2c-1.659 0-3.163.348-4.482 1.074l.964 1.752zm3.293-2.375c-1.378 0-2.273 1.059-2.837 2.315l1.824.82c.47-1.044.858-1.135 1.013-1.135v-2zm-2.842 2.326c-.578 1.33-.833 3.078-.833 5.174h2c0-1.971.245-3.406.667-4.376l-1.834-.798zm-.833 5.174c0 1.548.136 2.867.438 3.925l1.924-.55c-.232-.809-.362-1.923-.362-3.375h-2zm.44 3.93c.29.995.704 1.852 1.317 2.44l1.386-1.44c-.254-.245-.539-.721-.783-1.56l-1.92.56zm1.317 2.44c.58.558 1.284.905 2.093.905v-2c-.19 0-.42-.07-.707-.346l-1.386 1.442zm2.093.905c1.393 0 2.29-1.055 2.842-2.326l-1.834-.798c-.448 1.03-.834 1.124-1.008 1.124v2zm2.844-2.331c.576-1.344.831-3.097.831-5.194h-2c0 1.97-.245 3.416-.67 4.406l1.84.788zm.831-5.194c0-1.547-.136-2.86-.44-3.904l-1.92.558c.23.79.36 1.893.36 3.346h2zm-.44-3.904c-.29-.996-.704-1.852-1.317-2.442l-1.386 1.442c.254.244.539.72.783 1.558l1.92-.558zm-1.303-2.428c-.576-.576-1.287-.918-2.107-.918v2c.213 0 .435.074.693.332l1.414-1.414zm16.246-.368l.989-.152-.338-2.197-1.42 1.71.77.639zm.1.65l.771.637.286-.346-.068-.443-.989.152zm-8.3 10.05l-.894-.447 1.665 1.084-.77-.637zm.575-1.15v-1h-.618l-.276.553.894.447zM38.553 28l.634.774-.634-.774zm.375-.8v-1h-.84l-.145.829.985.171zm.575 0h1v-1h-1v1zm.1 4.325l-.217.976 1.307.29-.092-1.335-.998.069zm-1.075-.075l.03-1-.03 1zm-1.875-.025l-.024 1h.024v-1zM26.578 31.4h-1v1h1v-1zm0-.525l-.77-.639-.23.278v.361h1zm10.525-12.2h1v-1h-1v1zm0 16.85v1h1v-1h-1zm-3.5 0h-1v1h1v-1zm0-12.725l-.8-.6-.2.266v.334h1zm3.1-4.125v-1h-.5l-.3.4.8.6zm-.988.152l.1.65 1.977-.304-.1-.65-1.977.304zm.317-.139l-8.3 10.05 1.542 1.274 8.3-10.05-1.542-1.274zm-6.634 11.134l.575-1.15-1.79-.894-.574 1.15 1.789.894zm-.32-.597h8.175v-2h-8.175v2zm8.175 0c.371 0 .714-.02 1.008-.07.264-.047.63-.139.926-.381l-1.267-1.548c.067-.055.115-.07.106-.067a.703.703 0 01-.106.024 4.13 4.13 0 01-.667.042v2zm1.934-.451c.456-.373.643-.924.727-1.403l-1.97-.342a.973.973 0 01-.065.234c-.014.03-.008.003.041-.037l1.267 1.548zm-.259-.574h.575v-2h-.575v2zm-.425-1c0 1.136.009 2.03.026 2.676l1.999-.052c-.016-.62-.025-1.494-.025-2.624h-2zm.026 2.676c.017.644.042 1.217.077 1.718l1.995-.138a38.81 38.81 0 01-.073-1.632l-2 .052zm1.291.673c-.262-.058-.726-.083-1.262-.099l-.06 2c.278.008.494.018.655.029.177.012.238.023.233.022l.434-1.952zm-1.262-.099a65.214 65.214 0 00-1.905-.025v2c.676 0 1.29.008 1.846.025l.059-2zm-1.88-.025a75.11 75.11 0 00-1.8-.025v2c.49 0 1.073.008 1.75.025l.05-2zm-1.8-.025h-8.3v2h8.3v-2zm-7.3 1v-.525h-2v.525h2zm-.23.114l10.125-12.2-1.54-1.278-10.124 12.2 1.539 1.278zm8.755-12.839v16.85h2v-16.85h-2zm1 15.85h-3.5v2h3.5v-2zm-2.5 1V22.8h-2v12.725h2zm-.2-12.124l3.1-4.125-1.6-1.202-3.1 4.125 1.6 1.202zm2.3-3.726h.4v-2h-.4v2z" fill="#936DFF"/></svg>