<svg width="51" height="51" fill="none" xmlns="http://www.w3.org/2000/svg"><path d="M4.916 13.616L25.5 1.732l20.584 11.884v23.768L25.5 49.268 4.916 37.384V13.616z" stroke="#fff" stroke-width="3"/><path d="M23.35 19.5l-.453.892.006.002.447-.894zm2.575 2.325l-.851.525.005.008.005.008.841-.541zm0 7.075l-.86-.51.86.51zm-2.65 2.525l.478.878-.478-.878zm-7.725.1l.447-.894-.447.894zm-2.6-2.325l-.845.535.845-.535zm-.025-7.05l-.86-.51-.002.004.862.506zm2.65-2.525l.478.878.004-.002-.482-.876zm1.85 1.225l-.912-.41-.005.011.917.399zm-.35 8.425l-.962.275.002.004.96-.279zm1.05 2l.693-.72-.693.72zm3.325-1.1l.917.399.002-.005-.919-.394zm-.7-10.425l-.707.707.007.007.007.007.693-.721zm-1.175-.075c1.304 0 2.402.25 3.322.717l.906-1.784c-1.247-.633-2.666-.933-4.228-.933v2zm3.328.72c.942.47 1.657 1.12 2.17 1.955l1.703-1.05c-.719-1.166-1.72-2.065-2.979-2.694l-.894 1.788zm2.181 1.971c.516.8.791 1.765.791 2.934h2c0-1.498-.358-2.85-1.11-4.017l-1.68 1.083zm.791 2.934c0 1.168-.275 2.189-.81 3.09l1.72 1.02c.732-1.232 1.09-2.61 1.09-4.11h-2zm-.81 3.09c-.538.905-1.286 1.622-2.268 2.157l.956 1.756c1.285-.699 2.303-1.665 3.032-2.892l-1.72-1.021zm-2.268 2.157c-.963.523-2.118.803-3.497.803v2c1.654 0 3.15-.337 4.453-1.047l-.956-1.756zm-3.497.803c-1.266 0-2.36-.248-3.303-.72l-.894 1.79c1.257.628 2.663.93 4.197.93v-2zm-3.303-.72c-.944-.471-1.67-1.125-2.202-1.965l-1.69 1.07c.735 1.16 1.742 2.056 2.998 2.684l.894-1.788zm-2.202-1.965c-.52-.82-.795-1.796-.795-2.965h-2c0 1.498.358 2.855 1.105 4.035l1.69-1.07zM13 25.7c0-1.154.268-2.16.787-3.044l-1.724-1.012C11.349 22.86 11 24.22 11 25.7h2zm.785-3.04c.537-.905 1.286-1.622 2.268-2.157l-.956-1.756c-1.285.699-2.303 1.665-3.032 2.893l1.72 1.02zm2.272-2.16c.981-.54 2.144-.825 3.518-.825v-2c-1.659 0-3.163.348-4.482 1.074l.964 1.752zm3.293-2.375c-1.378 0-2.273 1.059-2.837 2.315l1.824.82c.47-1.044.858-1.135 1.013-1.135v-2zm-2.842 2.326c-.578 1.33-.833 3.078-.833 5.174h2c0-1.971.245-3.406.667-4.376l-1.834-.798zm-.833 5.174c0 1.548.136 2.867.438 3.925l1.924-.55c-.232-.809-.362-1.923-.362-3.375h-2zm.44 3.93c.29.995.704 1.852 1.317 2.44l1.386-1.44c-.254-.245-.539-.721-.783-1.56l-1.92.56zm1.317 2.44c.58.558 1.284.905 2.093.905v-2c-.19 0-.42-.07-.707-.346l-1.386 1.442zm2.093.905c1.393 0 2.29-1.055 2.842-2.326l-1.834-.798c-.448 1.03-.834 1.124-1.008 1.124v2zm2.844-2.331c.576-1.344.831-3.097.831-5.194h-2c0 1.97-.245 3.416-.67 4.406l1.84.788zm.831-5.194c0-1.547-.136-2.86-.44-3.904l-1.92.558c.23.79.36 1.893.36 3.346h2zm-.44-3.904c-.29-.996-.704-1.852-1.317-2.442l-1.386 1.442c.254.244.539.72.783 1.558l1.92-.558zm-1.303-2.428c-.576-.576-1.287-.918-2.107-.918v2c.213 0 .435.074.693.332l1.414-1.414zm16.888-.768h1v-1h-1v1zm.025 2.8l-1 .025 1-.025zm.075 1.775l-.225.974 1.31.302-.087-1.34-.998.064zm-1.375-.1l-.024 1 .024-1zm-6.75-.025v-1h-.886l-.107.88.993.12zm-.475 3.9l-.992-.12-.289 2.367 1.89-1.454-.609-.793zm8.275.025l.685-.729-.685.729zm.275 5.425l-.763-.647-.008.01.771.637zm-2.55 1.95l-.447-.895-.011.006.458.889zm-3.55 1.25l.213.977-.213-.977zm-3.925.425h-1v1h1v-1zm0-.45l-.015-1-.985.016v.984h1zm3.05-.7l-.409-.912-.006.002-.007.003.422.907zm2.375-1.925l-.802-.597-.007.01.81.587zm.275-5.425l-.774.633.774-.633zm-3.35-.575l-.399-.917-.007.003-.008.004.414.91zm-1.05.675l-.566.824.63.434.584-.496-.648-.762zm-.4-.275l-.992-.123-.075.603.5.344.567-.824zm1-8.075l.179-.984-1.041-.19-.13 1.051.992.123zm.625.075l-.071.998h.005l.066-.998zm6.525-.15l-.504-.864-.016.01-.017.01.537.844zm.35-.6v-1h-.89l-.103.883.993.117zm-.425 0c0 1.203.008 2.146.025 2.825l2-.05c-.017-.654-.025-1.578-.025-2.775h-2zm.025 2.825c.017.676.043 1.281.077 1.814l1.996-.128c-.032-.5-.057-1.079-.073-1.736l-2 .05zm1.3.776c-.334-.077-.897-.11-1.576-.126l-.048 2c.721.017 1.075.051 1.174.074l.45-1.948zm-1.576-.126a88.98 88.98 0 00-2.124-.025v2c.692 0 1.384.008 2.076.025l.048-2zm-2.124-.025h-4.65v2h4.65v-2zm-5.642.88l-.476 3.9 1.986.24.475-3.9-1.985-.24zm1.127 4.813c.305-.235.765-.464 1.424-.659l-.567-1.918c-.808.239-1.515.56-2.077.991l1.22 1.586zm1.424-.659c.617-.183 1.384-.284 2.316-.284v-2c-1.068 0-2.035.115-2.883.366l.566 1.918zm2.316-.284c1.666 0 2.673.37 3.24.904l1.37-1.458c-1.1-1.033-2.71-1.446-4.61-1.446v2zm3.24.904c.642.602.935 1.284.935 2.096h2c0-1.388-.54-2.59-1.565-3.554l-1.37 1.458zm.935 2.096c0 .72-.234 1.36-.738 1.953l1.526 1.294c.796-.94 1.212-2.033 1.212-3.247h-2zm-.746 1.963c-.529.64-1.26 1.21-2.226 1.693l.894 1.788c1.167-.583 2.136-1.314 2.874-2.207l-1.542-1.274zm-2.237 1.698c-.981.506-2.081.895-3.305 1.162l.426 1.954c1.376-.3 2.643-.744 3.795-1.338l-.916-1.778zm-3.305 1.162c-1.23.268-2.468.402-3.712.402v2a19.4 19.4 0 004.138-.448l-.426-1.954zM29.37 35.7v-.45h-2v.45h2zm-.984.55a8.424 8.424 0 003.456-.793l-.844-1.814a6.412 6.412 0 01-2.643.607l.03 2zm3.443-.788a6.827 6.827 0 002.776-2.25l-1.62-1.174a4.829 4.829 0 01-1.974 1.6l.818 1.825zm2.768-2.24c.777-1.042 1.148-2.275 1.148-3.647h-2c0 .994-.262 1.795-.752 2.453l1.604 1.194zm1.148-3.647c0-1.162-.251-2.214-.9-3.008l-1.549 1.266c.25.306.45.838.45 1.742h2zm-.9-3.008c-.686-.838-1.671-1.192-2.775-1.192v2c.663 0 1.011.196 1.226.458l1.548-1.266zm-2.775-1.192c-.622 0-1.213.1-1.749.333l.798 1.834c.231-.1.54-.167.951-.167v-2zm-1.764.34a5.489 5.489 0 00-1.284.823l1.296 1.524a3.49 3.49 0 01.816-.527l-.828-1.82zm-.07.761l-.4-.275-1.132 1.648.4.275 1.133-1.648zm.026.672l1-8.075-1.984-.246-1 8.075 1.985.246zm-.17-7.214c.226.041.471.07.732.088l.142-1.994a4.859 4.859 0 01-.517-.062l-.358 1.968zm.737.089c.27.018.534.027.791.027v-2c-.21 0-.429-.008-.658-.023l-.133 1.996zm.791.027h4.975v-2H31.62v2zm4.975 0c.44 0 .942-.064 1.362-.331l-1.074-1.688c.034-.021.039-.014-.014-.003s-.14.022-.274.022v2zm1.329-.311c.535-.312.779-.832.84-1.347l-1.987-.234c-.004.036-.008.018.017-.024a.347.347 0 01.122-.123l1.008 1.728zm-.154-.464h.575v-2h-.575v2z" fill="#ABABAB"/></svg>