<svg width="51" height="51" fill="none" xmlns="http://www.w3.org/2000/svg"><path d="M4.916 13.616L25.5 1.732l20.584 11.884v23.768L25.5 49.268 4.916 37.384V13.616z" stroke="#6132E4" stroke-width="3"/><path d="M24.35 19.5l-.453.892.006.002.447-.894zm2.575 2.325l-.851.525.005.008.005.008.841-.541zm0 7.075l-.86-.51.86.51zm-2.65 2.525l.478.878-.478-.878zm-7.725.1l.447-.894-.447.894zm-2.6-2.325l-.845.535.845-.535zm-.025-7.05l-.86-.51-.002.004.862.506zm2.65-2.525l.478.878.004-.002-.482-.876zm1.85 1.225l-.912-.41-.005.011.917.399zm-.35 8.425l-.962.275.002.004.96-.279zm1.05 2l.693-.72-.693.72zm3.325-1.1l.917.399.002-.005-.919-.394zm-.7-10.425l-.707.707.007.007.007.007.693-.721zm-1.175-.075c1.304 0 2.402.25 3.322.717l.906-1.784c-1.247-.633-2.666-.933-4.228-.933v2zm3.328.72c.942.47 1.657 1.12 2.17 1.955l1.703-1.05c-.719-1.166-1.72-2.065-2.979-2.694l-.894 1.788zm2.181 1.971c.516.8.791 1.765.791 2.934h2c0-1.498-.358-2.85-1.11-4.017l-1.68 1.083zm.791 2.934c0 1.168-.275 2.189-.81 3.09l1.72 1.02c.732-1.232 1.09-2.61 1.09-4.11h-2zm-.81 3.09c-.538.905-1.286 1.622-2.268 2.157l.956 1.756c1.285-.699 2.303-1.665 3.032-2.892l-1.72-1.021zm-2.268 2.157c-.963.523-2.118.803-3.497.803v2c1.654 0 3.15-.337 4.453-1.047l-.956-1.756zm-3.497.803c-1.266 0-2.36-.248-3.303-.72l-.894 1.79c1.257.628 2.663.93 4.197.93v-2zm-3.303-.72c-.944-.471-1.67-1.125-2.202-1.965l-1.69 1.07c.735 1.16 1.742 2.056 2.998 2.684l.894-1.788zm-2.202-1.965c-.52-.82-.795-1.796-.795-2.965h-2c0 1.498.358 2.855 1.105 4.035l1.69-1.07zM14 25.7c0-1.154.268-2.16.787-3.044l-1.724-1.012C12.349 22.86 12 24.22 12 25.7h2zm.785-3.04c.537-.905 1.286-1.622 2.268-2.157l-.956-1.756c-1.285.699-2.303 1.665-3.032 2.893l1.72 1.02zm2.272-2.16c.981-.54 2.144-.825 3.518-.825v-2c-1.659 0-3.163.348-4.482 1.074l.964 1.752zm3.293-2.375c-1.378 0-2.273 1.059-2.837 2.315l1.824.82c.47-1.044.858-1.135 1.013-1.135v-2zm-2.842 2.326c-.578 1.33-.833 3.078-.833 5.174h2c0-1.971.245-3.406.667-4.376l-1.834-.798zm-.833 5.174c0 1.548.136 2.867.438 3.925l1.924-.55c-.232-.809-.362-1.923-.362-3.375h-2zm.44 3.93c.29.995.704 1.852 1.317 2.44l1.386-1.44c-.254-.245-.539-.721-.783-1.56l-1.92.56zm1.317 2.44c.58.558 1.284.905 2.093.905v-2c-.19 0-.42-.07-.707-.346l-1.386 1.442zm2.093.905c1.393 0 2.29-1.055 2.842-2.326l-1.834-.798c-.448 1.03-.834 1.124-1.008 1.124v2zm2.844-2.331c.576-1.344.831-3.097.831-5.194h-2c0 1.97-.245 3.416-.67 4.406l1.84.788zm.831-5.194c0-1.547-.136-2.86-.44-3.904l-1.92.558c.23.79.36 1.893.36 3.346h2zm-.44-3.904c-.29-.996-.704-1.852-1.317-2.442l-1.386 1.442c.254.244.539.72.783 1.558l1.92-.558zm-1.303-2.428c-.576-.576-1.287-.918-2.107-.918v2c.213 0 .435.074.693.332l1.414-1.414zm13.963-.293h1v-1.728l-1.498.86.498.868zm.3 12.35l-.78.625.012.015.012.015.756-.655zm1.1.375h1v-1h-1v1zm0 .525l-.05.999 1.05.052V32h-1zm-1.475-.05l-.052.999h.027l.025-.999zm-4.625 0l.02 1h.02l-.04-1zm-1.95.05h-1v1.036L29.806 33l-.036-1zm0-.525v-1h-1v1h1zm1.575-.4l.588.809.006-.005-.594-.804zm.375-9.575l-.957.291.006.019.007.018.944-.328zm-1.95-.925h-1v1h1v-1zm0-.55l-.02-1-.98.02v.98h1zm3.925-.325l.175.985-.175-.985zm1.725-.95v10.925h2V18.75h-2zm0 10.925c0 .392.028.76.097 1.087.067.319.187.669.422.963l1.562-1.25c.035.044.006.032-.027-.125a3.405 3.405 0 01-.054-.675h-2zm.544 2.08c.492.567 1.211.72 1.856.72v-2a1.1 1.1 0 01-.34-.04c-.044-.015-.03-.02-.004.01l-1.512 1.31zm.856-.28V32h2v-.525h-2zm1.05-.474a67.282 67.282 0 00-1.5-.05l-.05 1.999c.647.016 1.13.033 1.45.049l.1-1.998zm-1.472-.05a38.633 38.633 0 00-2.028-.051v2c.667 0 1.308.016 1.923.049l.105-1.998zM34.37 30.9c-.929 0-1.825.017-2.69.05l.08 2a66.66 66.66 0 012.61-.05v-2zm-2.67.05c-.835.017-1.491.034-1.966.05l.072 2c.459-.017 1.103-.034 1.934-.05l-.04-2zM30.77 32v-.525h-2V32h2zm-1 .475c.794 0 1.559-.152 2.163-.591l-1.176-1.618c-.129.094-.414.209-.987.209v2zm2.17-.596c.775-.573.98-1.542.98-2.454h-2c0 .338-.04.56-.088.696a.523.523 0 01-.058.124.104.104 0 01-.023.026l1.188 1.608zm.98-2.454v-6.15h-2v6.15h2zm0-6.15c0-.825-.065-1.556-.255-2.103l-1.89.656c.077.22.145.672.145 1.447h2zm-.243-2.066c-.189-.62-.594-1.151-1.261-1.397l-.692 1.876c.005.002.003.002-.002-.002-.002 0-.004-.003-.005-.004l-.003-.002s.006.006.015.023a.5.5 0 01.034.088l1.914-.582zm-1.261-1.397c-.475-.175-1.043-.237-1.646-.237v2c.497 0 .796.055.954.113l.692-1.876zm-.646.763v-.55h-2v.55h2zm-.979.45c1.612-.034 2.976-.145 4.079-.34l-.35-1.97c-.964.171-2.216.277-3.77.31l.041 2zm4.079-.34c1.129-.2 2.15-.552 3.048-1.068l-.996-1.734c-.668.384-1.464.666-2.402.832l.35 1.97z" fill="#936DFF"/></svg>