<svg width="51" height="51" fill="none" xmlns="http://www.w3.org/2000/svg"><path d="M4.916 13.616L25.5 1.732l20.584 11.884v23.768L25.5 49.268 4.916 37.384V13.616z" stroke="#6132E4" stroke-width="3"/><path d="M22.35 19.5l-.447.894.005.003.442-.897zm2.6 2.35l-.855.519.004.006.851-.525zm-.025 7.05l-.86-.51.86.51zm-2.675 2.525l-.473-.881.473.881zm-7.725.1l-.447.894.005.003.442-.897zm-2.6-2.325l-.855.519.005.008.005.008.845-.535zm.025-7.075l.86.51-.86-.51zM14.6 19.6l-.473-.881-.005.003.478.878zm2.35.325l-.788-.616-.003.004.791.612zm-.95 2.25l-.973-.23-.003.011.976.219zm.475 8.175l-.889.459.889-.459zm3.425.775l-.788-.616-.003.004.791.612zm.95-2.275l-.973-.23-.002.007-.002.008.977.215zm-.45-8.175l-.889.459.004.006.885-.465zm-1.825-1c1.285 0 2.386.249 3.328.72l.894-1.79c-1.258-.629-2.674-.93-4.222-.93v2zm3.333.722c.954.47 1.674 1.126 2.187 1.972l1.71-1.038c-.72-1.187-1.734-2.098-3.013-2.728l-.884 1.794zm2.19 1.978c.51.826.777 1.79.777 2.925h2c0-1.465-.35-2.8-1.074-3.975l-1.702 1.05zm.777 2.925c0 1.168-.275 2.189-.81 3.09l1.72 1.02c.732-1.232 1.09-2.61 1.09-4.11h-2zm-.81 3.09c-.535.901-1.29 1.618-2.288 2.154l.946 1.762c1.301-.698 2.33-1.664 3.062-2.895l-1.72-1.021zm-2.288 2.154c-.985.528-2.136.806-3.477.806v2c1.625 0 3.108-.339 4.423-1.044l-.946-1.762zm-3.477.806c-1.266 0-2.37-.248-3.333-.722l-.884 1.794c1.27.626 2.683.928 4.217.928v-2zm-3.328-.72c-.944-.471-1.67-1.125-2.202-1.965l-1.69 1.07c.735 1.16 1.742 2.056 2.998 2.684l.894-1.788zm-2.192-1.949c-.512-.844-.78-1.827-.78-2.981h-2c0 1.48.348 2.83 1.07 4.019l1.71-1.038zM12 25.7c0-1.148.274-2.162.81-3.064l-1.72-1.021c-.73 1.23-1.09 2.6-1.09 4.085h2zm.81-3.064c.537-.906 1.286-1.623 2.268-2.158l-.956-1.756c-1.285.699-2.303 1.665-3.032 2.892l1.72 1.021zm2.263-2.155c.984-.528 2.142-.806 3.502-.806v-2c-1.64 0-3.132.338-4.448 1.044l.946 1.762zm3.277-2.356c-.915 0-1.646.49-2.188 1.184l1.576 1.232c.29-.373.494-.416.612-.416v-2zm-2.19 1.188c-.523.674-.883 1.577-1.133 2.631l1.946.462c.217-.913.49-1.51.768-1.869l-1.582-1.224zm-1.136 2.643c-.237 1.059-.349 2.286-.349 3.669h2c0-1.283.105-2.356.3-3.231l-1.95-.438zm-.349 3.669c0 2.166.267 3.935.911 5.184l1.778-.918c-.423-.818-.689-2.198-.689-4.266h-2zm.911 5.184c.628 1.215 1.588 2.091 2.939 2.091v-2c-.316 0-.722-.157-1.161-1.009l-1.778.918zm2.939 2.091c.906 0 1.631-.473 2.166-1.163l-1.582-1.224c-.265.343-.457.387-.584.387v2zm2.163-1.16c.542-.694.904-1.61 1.139-2.675l-1.954-.43c-.199.902-.47 1.502-.761 1.874l1.576 1.232zm1.135-2.66c.256-1.078.377-2.317.377-3.705h-2c0 1.279-.112 2.356-.323 3.244l1.946.462zm.377-3.705c0-2.164-.266-3.93-.915-5.165l-1.77.93c.418.797.685 2.165.685 4.235h2zm-.911-5.159c-.628-1.215-1.588-2.091-2.939-2.091v2c.316 0 .722.157 1.161 1.009l1.778-.918zm16.231-.691l-.578.816.578-.816zm.575 4.2l.797.604.005-.006.004-.006-.806-.592zm-1.5 1.45l.581.814-.58-.814zM34.27 26.65l.495.87.01-.007-.505-.863zm-2.55 1.675l-.655-.756-2.026 1.756h2.681v-1zm6.65-.075l.225.974.025-.005.025-.008-.275-.961zm.475-.3l.848.53.014-.022.012-.022-.874-.486zm.2-.65v-1h-.839l-.146.826.985.174zm.575 0h1v-1h-1v1zm.1 4.825l-.221.975 1.313.299-.094-1.344-.998.07zM27.77 32h-1v1h1v-1zm0-.525h1v-2.414l-1.707 1.707.707.707zm1.1-1.025l-.667-.745-.008.008-.009.008.684.729zm2.425-2.325l-.724-.69.724.69zm1.75-2.4l.874.486.004-.007-.878-.479zm.2-4.7l-.737.676.007.008.008.007.722-.691zm-3.525-.175l.47.883-.47-.883zm-1.5 1.25l-.577.817.748.527.592-.697-.763-.647zm-.425-.3l-.834-.551-.535.809.792.559.577-.817zm2.5-2.3l-.47-.883-.006.003.476.88zm3.95.175c1.259 0 2.123.26 2.697.666l1.156-1.632c-1.025-.726-2.345-1.034-3.853-1.034v2zm2.697.666c.53.375.778.85.778 1.534h2c0-1.317-.55-2.407-1.622-3.166l-1.156 1.632zm.778 1.534c0 .441-.133.853-.43 1.258l1.61 1.184c.536-.728.82-1.55.82-2.442h-2zm-.422 1.246a5.89 5.89 0 01-1.284 1.24l1.162 1.628a7.891 7.891 0 001.716-1.66l-1.594-1.208zm-1.284 1.24c-.55.393-1.296.867-2.25 1.426l1.012 1.726c.98-.575 1.783-1.083 2.4-1.524l-1.162-1.628zm-2.239 1.42c-1.21.689-2.131 1.287-2.71 1.788l1.31 1.512c.422-.366 1.2-.884 2.39-1.562l-.99-1.738zm-2.055 3.544h5.65v-2h-5.65v2zm5.65 0c.465 0 .893-.024 1.225-.1l-.45-1.95c-.1.024-.34.05-.775.05v2zm1.275-.113c.347-.1.778-.3 1.048-.732l-1.696-1.06a.447.447 0 01.133-.14c.02-.014.016-.006-.035.008l.55 1.924zm1.074-.776c.162-.291.253-.633.31-.962l-1.969-.348c-.02.111-.04.195-.058.255-.02.062-.032.085-.031.083l1.748.972zm-.674-.136h.575v-2h-.575v2zm-.425-1c0 2.267.033 3.906.103 4.895l1.995-.14c-.064-.912-.098-2.489-.098-4.755h-2zm1.322 3.85c-.294-.067-.797-.098-1.395-.118A80.059 80.059 0 0035.995 31v2c1.054 0 1.88.01 2.485.03.303.01.543.023.724.037a4.863 4.863 0 01.275.03l.02.003.443-1.95zM35.995 31H27.77v2h8.225v-2zm-7.225 1v-.525h-2V32h2zm-1.707-1.232a1.005 1.005 0 00-.036.038.997.997 0 00-.254.533c-.01.098.01.344.05.486.084.176.348.465.518.565.142.053.393.093.495.09.18-.013.31-.073.337-.085.083-.037.142-.079.151-.085a.74.74 0 00.067-.049l.022-.018.064-.057.2-.186.877-.82-1.368-1.46a441.738 441.738 0 01-1.06.991c-.024.022-.02.018-.008.008a.702.702 0 01.083-.064c.009-.005.068-.046.151-.084.027-.012.157-.072.337-.085.102-.002.353.037.495.09.17.1.434.39.518.565.04.143.06.388.05.487a1.777 1.777 0 01-.057.216 1 1 0 01-.082.166.961.961 0 01-.113.147l-.014.016-.006.007-.003.002-1.414-1.414zm2.474.427a43.666 43.666 0 002.482-2.38l-1.448-1.38a41.675 41.675 0 01-2.368 2.27l1.334 1.49zm2.482-2.38a12.696 12.696 0 001.9-2.604l-1.748-.972a10.665 10.665 0 01-1.6 2.196l1.448 1.38zm1.904-2.611c.575-1.054.872-2.168.872-3.329h-2c0 .806-.203 1.592-.628 2.371l1.756.958zm.872-3.329c0-.96-.201-1.887-.827-2.541l-1.446 1.382c.108.112.273.418.273 1.159h2zm-.813-2.526c-.62-.676-1.492-.924-2.412-.924v2c.58 0 .824.152.938.276l1.474-1.352zm-2.412-.924c-.837 0-1.62.17-2.319.542l.938 1.766c.368-.195.819-.308 1.381-.308v-2zm-2.319.542c-.665.353-1.26.858-1.793 1.486l1.525 1.294c.4-.472.804-.8 1.206-1.014l-.938-1.766zm-.454 1.316l-.425-.3-1.154 1.634.425.3 1.154-1.634zm-.168 1.068a5.89 5.89 0 012.142-1.971l-.952-1.76a7.888 7.888 0 00-2.858 2.629l1.668 1.102zm2.136-1.968c.845-.45 1.987-.708 3.48-.708v-2c-1.706 0-3.198.292-4.42.942l.94 1.766z" fill="#936DFF"/></svg>