<svg width="81" height="81" fill="none" xmlns="http://www.w3.org/2000/svg"><path d="M7.426 21.405L40.5 2.309l33.074 19.096v38.19L40.5 78.691 7.426 59.595v-38.19z" stroke="#6132E4" stroke-width="4"/><path d="M39.29 31.5l-.447.894.005.003.442-.897zm3.64 3.29l-.855.519.004.006.851-.525zm-.035 9.87l-.86-.51.86.51zm-3.745 3.535l-.473-.881.473.881zm-10.815.14l-.447.894.005.003.442-.897zm-3.64-3.255l-.855.519.005.008.005.008.845-.535zm.035-9.905l.86.51-.86-.51zm3.71-3.535l-.473-.881-.005.003.478.878zm3.29.455l-.788-.616-.003.004.791.612zm-1.33 3.15l-.973-.23-.003.011.976.219zm.665 11.445l-.889.459.889-.459zm4.795 1.085l-.788-.616-.003.004.791.612zm1.33-3.185l-.973-.23-.002.007-.002.008.977.215zm-.63-11.445l-.889.459.004.005.885-.464zm-2.555-1.8c1.852 0 3.456.359 4.838 1.05l.894-1.79c-1.698-.849-3.617-1.26-5.732-1.26v2zm4.843 1.052c1.4.69 2.467 1.66 3.227 2.912l1.71-1.038c-.967-1.594-2.327-2.818-4.053-3.668l-.884 1.794zm3.23 2.918c.757 1.226 1.147 2.65 1.147 4.305h2c0-1.985-.473-3.78-1.444-5.355l-1.702 1.05zm1.147 4.305c0 1.7-.402 3.202-1.19 4.53l1.72 1.02c.985-1.659 1.47-3.518 1.47-5.55h-2zm-1.19 4.53c-.789 1.328-1.9 2.382-3.358 3.164l.946 1.762c1.761-.944 3.147-2.247 4.132-3.906l-1.72-1.02zm-3.358 3.164c-1.445.775-3.122 1.176-5.057 1.176v2c2.219 0 4.228-.462 6.003-1.414l-.946-1.762zM33.62 48.49c-1.826 0-3.434-.358-4.843-1.052l-.884 1.794c1.717.846 3.633 1.258 5.727 1.258v-2zm-4.838-1.05c-1.384-.691-2.457-1.655-3.242-2.895l-1.69 1.07c.988 1.56 2.342 2.766 4.038 3.614l.894-1.788zm-3.232-2.879c-.759-1.25-1.15-2.7-1.15-4.381h-2c0 2.006.472 3.822 1.44 5.419l1.71-1.038zM24.4 40.18c0-1.675.4-3.165 1.19-4.495l-1.72-1.02c-.984 1.657-1.47 3.504-1.47 5.515h2zm1.19-4.495c.79-1.332 1.893-2.386 3.328-3.167l-.956-1.756c-1.738.945-3.11 2.248-4.092 3.902l1.72 1.021zm3.323-3.164c1.444-.774 3.132-1.176 5.092-1.176v-2c-2.24 0-4.262.462-6.038 1.414l.946 1.762zm4.777-2.546c-1.121 0-2.039.597-2.748 1.504l1.576 1.232c.457-.586.847-.736 1.172-.736v-2zm-2.75 1.508c-.683.88-1.17 2.084-1.513 3.531l1.946.462c.31-1.306.71-2.203 1.148-2.769l-1.582-1.224zm-1.516 3.543c-.324 1.445-.479 3.132-.479 5.049h2c0-1.817.148-3.35.43-4.611l-1.95-.438zm-.479 5.049c0 3.012.374 5.412 1.231 7.074l1.778-.918c-.636-1.231-1.009-3.242-1.009-6.156h-2zm1.231 7.074c.841 1.629 2.075 2.711 3.759 2.711v-2c-.65 0-1.329-.364-1.981-1.629l-1.778.918zm3.759 2.711c1.113 0 2.021-.576 2.716-1.473l-1.582-1.224c-.425.55-.8.697-1.134.697v2zm2.713-1.47c.71-.907 1.197-2.127 1.519-3.585l-1.954-.43c-.285 1.296-.683 2.199-1.141 2.784l1.576 1.232zm1.515-3.57c.35-1.471.517-3.174.517-5.095h-2c0 1.812-.159 3.353-.463 4.634l1.946.462zm.517-5.095c0-3.01-.373-5.402-1.234-7.044l-1.771.928c.631 1.205 1.005 3.2 1.005 6.116h2zm-1.231-7.039c-.841-1.628-2.075-2.711-3.759-2.711v2c.65 0 1.329.364 1.981 1.629l1.778-.918zm19.16 15.054l-.8.6.02.028.023.027.756-.655zm1.54.525h1v-1h-1v1zm0 .735l-.038 1 1.037.038V49h-1zm-10.256-.035l-.025-1h-.01l.035 1zM46.878 49h-1v1.035L46.913 50l-.035-1zm0-.735v-1h-1v1h1zm2.24-.63l-.633-.774-.009.007-.009.008.651.759zm.49-13.3l-.956.291.007.026.01.025.94-.342zm-.875-1.05l-.426.905.032.015.032.012.362-.932zm-1.855-.28h-1v1h1v-1zm0-.77l-.02-1-.98.02v.98h1zm5.53-.455l.178.984.012-.002-.19-.982zm3.78-1.33h1v-1.714l-1.492.843.492.871zm-1 15.295c0 .985.13 1.942.62 2.595l1.6-1.2c-.07-.094-.22-.467-.22-1.395h-2zm.664 2.65c.579.667 1.445.87 2.296.87v-2c-.595 0-.756-.147-.784-.18l-1.511 1.31zm1.296-.13V49h2v-.735h-2zm1.037-.264c-2.514-.093-4.145-.141-4.867-.141v2c.678 0 2.268.046 4.793.14l.074-2zm-4.867-.141c-.831 0-2.653.035-5.45.105l.05 2c2.803-.07 4.599-.105 5.4-.105v-2zm-5.46.106L46.845 48l.069 1.998 1.015-.035-.07-1.998zm.02 1.034v-.735h-2V49h2zm-1 .265c1.116 0 2.143-.23 2.891-.87l-1.302-1.52c-.231.2-.698.39-1.589.39v2zm2.873-.856c.858-.702 1.137-1.824 1.137-3.014h-2c0 .957-.234 1.328-.403 1.466l1.266 1.548zm1.137-3.014v-8.61h-2v8.61h2zm0-8.61c0-1.14-.09-2.105-.34-2.792l-1.88.684c.124.34.22 1.008.22 2.108h2zm-.323-2.741c-.229-.751-.694-1.39-1.47-1.691l-.724 1.864c.065.025.182.087.28.41l1.914-.583zm-1.406-1.664c-.603-.284-1.404-.375-2.28-.375v2c.803 0 1.238.095 1.428.185l.852-1.81zm-1.28.625v-.77h-2v.77h2zm-.98.23c2.29-.047 4.191-.201 5.687-.47l-.355-1.97c-1.351.244-3.137.394-5.373.44l.04 2zm5.7-.473c1.532-.297 2.898-.772 4.081-1.441l-.984-1.742c-.963.545-2.117.956-3.478 1.22l.38 1.963zm2.59-2.312v15.295h2V30.45h-2z" fill="#936DFF"/></svg>