<svg width="81" height="81" fill="none" xmlns="http://www.w3.org/2000/svg"><path d="M7.426 21.405L40.5 2.309l33.074 19.096v38.19L40.5 78.691 7.426 59.594v-38.19z" stroke="#6132E4" stroke-width="4"/><path d="M36.29 31.5l-.453.892.006.002.447-.894zm3.605 3.255l-.851.525.005.008.005.009.841-.542zm0 9.905l-.86-.51.86.51zm-3.71 3.535l.478.878-.478-.878zm-10.815.14l.447-.894-.447.894zm-3.64-3.255l-.845.535.845-.535zm-.035-9.87l-.86-.51-.002.004.862.506zm3.71-3.535l.478.878.004-.002-.482-.876zm2.59 1.715l-.912-.41-.005.011.917.399zm-.49 11.795l-.961.275v.004l.961-.279zm1.47 2.8l.693-.72-.693.72zm4.655-1.54l.917.399.002-.005-.919-.394zm-.98-14.595l-.707.707.007.007.007.007.693-.721zm-1.645-.505c1.878 0 3.479.36 4.832 1.047l.906-1.784c-1.68-.853-3.602-1.263-5.738-1.263v2zm4.838 1.05c1.381.69 2.44 1.65 3.2 2.885l1.703-1.05c-.965-1.566-2.31-2.775-4.009-3.624l-.894 1.788zm3.211 2.901c.769 1.194 1.171 2.622 1.171 4.324h2c0-2.031-.485-3.847-1.49-5.406l-1.68 1.083zm1.171 4.324c0 1.7-.402 3.202-1.19 4.53l1.72 1.02c.985-1.659 1.47-3.518 1.47-5.55h-2zm-1.19 4.53c-.79 1.332-1.893 2.386-3.328 3.167l.956 1.756c1.738-.945 3.11-2.248 4.092-3.903l-1.72-1.02zm-3.328 3.167c-1.416.77-3.101 1.173-5.087 1.173v2c2.26 0 4.286-.46 6.043-1.417l-.956-1.756zM30.62 48.49c-1.826 0-3.42-.358-4.803-1.05l-.894 1.79c1.697.848 3.603 1.26 5.697 1.26v-2zm-4.803-1.05c-1.384-.691-2.457-1.655-3.242-2.895l-1.69 1.07c.988 1.56 2.342 2.766 4.038 3.614l.894-1.788zm-3.242-2.895c-.773-1.22-1.175-2.663-1.175-4.365h-2c0 2.032.485 3.855 1.485 5.435l1.69-1.07zM21.4 40.18c0-1.68.391-3.16 1.157-4.464l-1.724-1.012c-.961 1.636-1.433 3.47-1.433 5.476h2zm1.155-4.46c.79-1.332 1.893-2.386 3.328-3.167l-.956-1.756c-1.738.945-3.11 2.248-4.092 3.902l1.72 1.022zm3.332-3.17c1.441-.792 3.137-1.205 5.118-1.205v-2c-2.266 0-4.303.474-6.082 1.454l.964 1.752zm4.803-2.575c-1.684 0-2.836 1.289-3.607 3.005l1.824.82c.676-1.504 1.32-1.825 1.783-1.825v-2zm-3.612 3.016c-.778 1.79-1.133 4.175-1.133 7.084h2c0-2.785.345-4.856.967-6.286l-1.834-.798zm-1.133 7.084c0 2.148.19 3.954.599 5.385l1.922-.55c-.337-1.182-.521-2.783-.521-4.835h-2zm.6 5.39c.396 1.361.95 2.485 1.737 3.24l1.386-1.44c-.427-.412-.852-1.155-1.203-2.36l-1.92.56zm1.737 3.24c.753.725 1.644 1.155 2.653 1.155v-2c-.39 0-.806-.153-1.267-.596l-1.386 1.442zm2.653 1.155c1.706 0 2.86-1.285 3.612-3.016l-1.834-.798c-.648 1.49-1.29 1.814-1.778 1.814v2zm3.614-3.021c.776-1.81 1.131-4.204 1.131-7.114h-2c0 2.783-.345 4.87-.97 6.326l1.84.788zm1.131-7.114c0-2.147-.19-3.944-.6-5.354l-1.92.558c.336 1.157.52 2.743.52 4.796h2zm-.6-5.354c-.396-1.362-.95-2.486-1.737-3.242l-1.386 1.442c.427.41.852 1.154 1.203 2.358l1.92-.558zm-1.723-3.228c-.742-.742-1.64-1.168-2.667-1.168v2c.42 0 .828.158 1.253.582l1.414-1.414zm24.171.392l-.578.816.012.008.566-.824zm.595 6.195l-.758-.652.758.652zm-2.695 2.275l.534.846-.534-.846zm-3.255 1.96l.484.875.007-.004.007-.004-.498-.867zm-2.765 1.89l-.658-.753-2.003 1.753h2.661v-1zm9.73-.315l.633.774-.633-.774zm.525-1.12v-1h-.84l-.145.829.985.171zm.805 0h1v-1h-1v1zm.035 4.165l-1 .023 1-.023zm.105 2.59l-.225.974 1.307.302-.084-1.338-.998.062zm-2.065-.14l-.022 1 .022-1zM43.878 49h-1v1h1v-1zm0-.735l-.707-.707-.293.293v.414h1zm2.345-2.17l-.65-.76-.008.007.658.753zm2.8-2.73l-.74-.673v.001l.74.672zm2.345-3.325l-.884-.468.884.468zm.175-6.405l-.737.676.007.008.008.007.722-.691zm-5.005-.21l.47.883.01-.005.01-.006-.49-.872zm-2.03 1.715l-.577.817.764.539.59-.725-.777-.631zm-.595-.42l-.834-.551-.535.809.793.559.576-.817zm3.325-3.115l.515.857-.515-.857zm5.705-.26c1.812 0 3.113.373 4.007 1.006l1.156-1.632c-1.345-.953-3.101-1.374-5.163-1.374v2zm4.019 1.014c.833.573 1.246 1.353 1.246 2.466h2c0-1.734-.707-3.147-2.113-4.114l-1.133 1.648zm1.246 2.466a3.32 3.32 0 01-.843 2.252l1.516 1.306a5.32 5.32 0 001.327-3.558h-2zm-.843 2.252c-.65.755-1.469 1.45-2.47 2.082l1.066 1.692c1.146-.722 2.123-1.543 2.92-2.468l-1.516-1.306zm-2.47 2.082a91.546 91.546 0 01-3.22 1.939l.996 1.734a93.378 93.378 0 003.29-1.981l-1.066-1.692zm-3.206 1.931c-1.143.633-2.127 1.302-2.94 2.012l1.318 1.506c.68-.596 1.54-1.187 2.59-1.768l-.968-1.75zm-2.28 3.765h7.91v-2h-7.91v2zm7.91 0c.507 0 .96-.027 1.342-.093.35-.061.777-.175 1.11-.448l-1.266-1.548c.076-.063.071-.02-.185.025a6.154 6.154 0 01-1.002.064v2zm2.452-.541c.53-.434.767-1.091.877-1.723l-1.97-.342a1.743 1.743 0 01-.121.43c-.04.082-.064.097-.052.087l1.266 1.548zm-.108-.894h.805v-2h-.805v2zm-.195-1c0 1.776.012 3.173.035 4.188l2-.046c-.023-.992-.035-2.371-.035-4.142h-2zm.035 4.189c.024.989.06 1.866.107 2.628l1.996-.124a68.347 68.347 0 01-.103-2.552l-2 .048zm1.33 1.592c-.423-.098-1.223-.143-2.268-.166l-.044 2c1.102.024 1.68.072 1.862.114l.45-1.948zm-2.268-.166A142.766 142.766 0 0055.393 48v2c1.043 0 2.085.012 3.128.035l.044-2zM55.393 48H43.878v2h11.515v-2zm-10.515 1v-.735h-2V49h2zm-.293-.028c.61-.61 1.374-1.317 2.297-2.124l-1.317-1.506a49.97 49.97 0 00-2.394 2.216l1.414 1.414zm2.287-2.116a31.676 31.676 0 002.892-2.82l-1.482-1.343a29.667 29.667 0 01-2.708 2.641l1.298 1.522zm2.891-2.818a17.203 17.203 0 002.489-3.53l-1.768-.936a15.2 15.2 0 01-2.2 3.12l1.48 1.346zm2.489-3.53a9.034 9.034 0 001.061-4.283h-2a7.034 7.034 0 01-.829 3.347l1.768.936zm1.061-4.283c0-1.3-.275-2.474-1.047-3.281l-1.445 1.382c.254.266.492.818.492 1.899h2zm-1.033-3.266c-.766-.836-1.862-1.164-3.082-1.164v2c.88 0 1.348.232 1.608.516l1.474-1.352zm-3.082-1.164c-1.164 0-2.227.239-3.15.758l.98 1.744c.57-.321 1.281-.502 2.17-.502v-2zm-3.129.747c-.88.467-1.658 1.131-2.337 1.967l1.552 1.262c.534-.657 1.11-1.137 1.723-1.463l-.938-1.766zm-.984 1.781l-.595-.42-1.154 1.634.596.42 1.153-1.634zm-.337.948c.726-1.1 1.72-2.038 3.005-2.809l-1.03-1.715c-1.514.91-2.737 2.048-3.644 3.422l1.669 1.102zm3.005-2.809c1.188-.712 2.888-1.117 5.19-1.117v-2c-2.504 0-4.607.435-6.22 1.402l1.03 1.715z" fill="#936DFF"/></svg>