<svg width="81" height="82" fill="none" xmlns="http://www.w3.org/2000/svg"><path d="M7.426 21.748L40.5 2.653l33.074 19.095v38.19L40.5 79.035 7.426 59.94V21.75z" stroke="#6132E4" stroke-width="4"/><path d="M37.29 31.5l-.453.892.006.002.447-.894zm3.605 3.255l-.851.525.005.008.005.009.841-.542zm0 9.905l-.86-.51.86.51zm-3.71 3.535l.478.878-.478-.878zm-10.815.14l.447-.894-.447.894zm-3.64-3.255l-.845.535.845-.535zm-.035-9.87l-.86-.51-.002.004.862.506zm3.71-3.535l.478.878.004-.002-.482-.876zm2.59 1.715l-.912-.41-.005.011.917.399zm-.49 11.795l-.961.275v.004l.961-.279zm1.47 2.8l.693-.72-.693.72zm4.655-1.54l.917.399.002-.005-.919-.394zm-.98-14.595l-.707.707.007.007.007.007.693-.721zm-1.645-.505c1.877 0 3.479.36 4.832 1.047l.906-1.784c-1.68-.853-3.602-1.263-5.738-1.263v2zm4.838 1.05c1.381.69 2.44 1.65 3.2 2.885l1.703-1.05c-.965-1.566-2.31-2.775-4.009-3.624l-.894 1.788zm3.211 2.901c.769 1.194 1.171 2.622 1.171 4.324h2c0-2.031-.485-3.847-1.49-5.406l-1.68 1.083zm1.171 4.324c0 1.7-.402 3.202-1.19 4.53l1.72 1.02c.985-1.659 1.47-3.518 1.47-5.55h-2zm-1.19 4.53c-.79 1.332-1.893 2.386-3.328 3.167l.956 1.756c1.738-.945 3.11-2.248 4.092-3.903l-1.72-1.02zm-3.328 3.167c-1.416.77-3.101 1.173-5.087 1.173v2c2.26 0 4.286-.46 6.043-1.417l-.956-1.756zM31.62 48.49c-1.826 0-3.42-.358-4.803-1.05l-.894 1.79c1.697.848 3.603 1.26 5.697 1.26v-2zm-4.803-1.05c-1.384-.691-2.457-1.655-3.242-2.895l-1.69 1.07c.988 1.56 2.342 2.766 4.038 3.614l.894-1.788zm-3.242-2.895c-.773-1.22-1.175-2.663-1.175-4.365h-2c0 2.032.485 3.855 1.485 5.435l1.69-1.07zM22.4 40.18c0-1.68.391-3.16 1.157-4.464l-1.724-1.012c-.961 1.636-1.433 3.47-1.433 5.476h2zm1.155-4.46c.79-1.332 1.893-2.386 3.328-3.167l-.956-1.756c-1.738.945-3.11 2.248-4.092 3.902l1.72 1.022zm3.332-3.17c1.441-.792 3.137-1.205 5.118-1.205v-2c-2.266 0-4.303.474-6.082 1.454l.964 1.752zm4.803-2.575c-1.684 0-2.836 1.289-3.607 3.005l1.824.82c.676-1.504 1.32-1.825 1.783-1.825v-2zm-3.612 3.016c-.778 1.79-1.133 4.175-1.133 7.084h2c0-2.785.345-4.856.967-6.286l-1.834-.798zm-1.133 7.084c0 2.148.19 3.954.599 5.385l1.922-.55c-.337-1.182-.521-2.783-.521-4.835h-2zm.6 5.39c.396 1.361.95 2.485 1.737 3.24l1.386-1.44c-.427-.412-.852-1.155-1.203-2.36l-1.92.56zm1.737 3.24c.753.725 1.644 1.155 2.653 1.155v-2c-.39 0-.806-.153-1.267-.596l-1.386 1.442zm2.653 1.155c1.706 0 2.86-1.285 3.612-3.016l-1.834-.798c-.648 1.49-1.29 1.814-1.778 1.814v2zm3.614-3.021c.776-1.81 1.131-4.204 1.131-7.114h-2c0 2.783-.345 4.87-.97 6.326l1.84.788zm1.131-7.114c0-2.147-.19-3.944-.6-5.354l-1.92.558c.336 1.157.52 2.743.52 4.796h2zm-.6-5.354c-.396-1.362-.95-2.486-1.737-3.242l-1.386 1.442c.427.41.852 1.154 1.203 2.358l1.92-.558zm-1.723-3.228c-.742-.742-1.64-1.168-2.667-1.168v2c.42 0 .829.158 1.253.582l1.414-1.414zm23.051.287l-.498.867.013.007.485-.874zm.945 5.46l.774.633.005-.005.004-.006-.783-.622zm-7.42 3.29l-.138-.99.199 1.988-.06-.998zm5.04.42l.265-.964-.265.964zm3.36 1.855l-.727.687.005.005.005.005.717-.697zm-.21 6.72l-.746-.665.746.665zm-3.815 2.73L54.882 51l-.008.004-.008.004.442.897zm-5.18 1.75l-.205-.979-.012.003.217.976zm-5.67.63h-1v1h1v-1zm0-.735l-.045-.999-.955.043v.956h1zm3.22-.595l-.298-.954.298.954zm3.115-1.54l-.554-.832-.012.008-.011.008.577.816zm2.38-2.45l-.85-.526.85.526zm-.07-6.755l-.815.58.009.011.009.012.797-.603zm-2.66-1.47l.082-.997-.265-.021-.24.112.423.906zm-.98.42l.36.933-.36-.933zm-1.26-1.015l-.414-.91.414.91zm1.435-.14l-.124.992.014.002.11-.994zm.665.07l-.1.995.354.035.296-.195-.55-.835zm2.1-2.135l-.889-.458-.005.01.894.448zm-.245-4.585l-.676.737.009.008.009.008.658-.753zm-4.83-.14l-.468-.884.468.884zm-1.995 1.855l-.486.874.812.451.51-.776-.836-.549zm-.63-.35l-.855-.518-.538.888.907.504.486-.874zm1.68-2.135l.707.707-.707-.707zm2.52-1.61l.368.93.01-.005-.378-.925zm3.78.37c1.767 0 3.158.338 4.227.952l.996-1.734c-1.45-.833-3.21-1.218-5.223-1.218v2zm4.24.96c.99.55 1.375 1.231 1.375 2.1h2c0-1.698-.874-3-2.404-3.85l-.971 1.75zm1.375 2.1c0 .6-.213 1.215-.728 1.863l1.566 1.244c.745-.938 1.162-1.98 1.162-3.107h-2zm-.719 1.852c-.507.62-1.303 1.216-2.453 1.759l.854 1.808c1.324-.624 2.395-1.381 3.147-2.3l-1.548-1.267zm-2.453 1.759c-1.118.527-2.554.926-4.33 1.174l.275 1.98c1.91-.266 3.555-.707 4.909-1.346l-.853-1.808zm-4.132 3.162c1.833-.112 3.399.026 4.715.386l.529-1.928c-1.578-.433-3.372-.576-5.366-.454l.122 1.996zm4.715.386c1.321.363 2.262.905 2.897 1.578l1.454-1.374c-.951-1.007-2.25-1.701-3.822-2.132l-.53 1.928zm2.907 1.588c.628.646.942 1.42.942 2.383h2c0-1.463-.503-2.743-1.508-3.777l-1.434 1.394zm.942 2.383c0 1.092-.377 2.072-1.181 2.975l1.493 1.33c1.108-1.244 1.688-2.69 1.688-4.305h-2zm-1.181 2.975c-.85.953-2.004 1.789-3.495 2.49l.852 1.81c1.682-.792 3.072-1.776 4.136-2.97l-1.493-1.33zm-3.51 2.498c-1.481.73-3.127 1.287-4.944 1.668l.41 1.958c1.964-.412 3.771-1.021 5.417-1.832l-.884-1.794zm-4.956 1.67c-1.82.405-3.638.607-5.453.607v2c1.965 0 3.928-.218 5.887-.654l-.434-1.952zm-4.453 1.607v-.735h-2v.735h2zm-.954.264c1.123-.051 2.282-.267 3.472-.64l-.596-1.908c-1.05.327-2.038.508-2.967.55l.09 1.998zm3.472-.64a12.087 12.087 0 003.395-1.678L50.216 50.6A10.092 10.092 0 0147.38 52l.596 1.909zm3.372-1.662a8.943 8.943 0 002.675-2.756l-1.7-1.052a6.943 6.943 0 01-2.084 2.144l1.109 1.664zm2.675-2.756c.716-1.155 1.06-2.473 1.06-3.921h-2c0 1.12-.262 2.064-.76 2.869l1.7 1.052zm1.06-3.921c0-1.535-.366-2.884-1.182-3.963l-1.595 1.206c.49.648.777 1.538.777 2.757h2zm-1.165-3.94c-.811-1.141-1.974-1.77-3.393-1.887l-.163 1.994c.867.07 1.477.42 1.926 1.052l1.63-1.158zm-3.898-1.796c-.333.155-.638.286-.916.393l.718 1.866c.329-.126.677-.276 1.044-.447l-.846-1.812zm-.916.393a1.612 1.612 0 01-.586.108v2c.449 0 .886-.08 1.304-.242l-.718-1.866zm-.586.108c-.126 0-.036-.03.1.08a.555.555 0 01.167.22c.032.077.033.13.033.14h-2c0 .407.139.871.55 1.2.37.296.81.36 1.15.36v-2zm.3.44c0-.01.002.052-.05.136a.376.376 0 01-.151.144l-.828-1.82a1.632 1.632 0 00-.728.633c-.18.295-.243.614-.243.907h2zm-.201.28c.108-.049.255-.085.461-.085v-2c-.447 0-.883.08-1.289.265l.828 1.82zm.461-.085c.145 0 .29.009.436.027l.248-1.984a5.518 5.518 0 00-.684-.043v2zm.45.029c.214.024.44.047.676.071l.199-1.99c-.23-.023-.448-.046-.654-.069L49.528 41zm1.325-.089c1.11-.73 1.964-1.562 2.445-2.523l-1.79-.894c-.265.532-.81 1.124-1.755 1.747l1.1 1.67zm2.44-2.512c.46-.894.705-1.82.705-2.768h-2c0 .592-.15 1.206-.484 1.852l1.778.916zm.705-2.768c0-1.2-.331-2.284-1.181-3.028L51.5 34.108c.27.236.498.67.498 1.522h2zm-1.164-3.012c-.793-.727-1.83-1.033-2.986-1.033v2c.805 0 1.308.207 1.634.507l1.352-1.474zm-2.986-1.033a6.31 6.31 0 00-2.988.746l.936 1.768a4.31 4.31 0 012.052-.514v-2zm-2.988.746c-.955.506-1.742 1.245-2.362 2.19l1.67 1.098c.453-.689.996-1.186 1.628-1.52l-.936-1.768zm-1.041 1.865l-.63-.35-.971 1.748.63.35.97-1.748zm-.26 1.042c.423-.7.933-1.348 1.531-1.946l-1.414-1.414a12.281 12.281 0 00-1.828 2.324l1.71 1.036zm1.531-1.946c.569-.568 1.288-1.034 2.18-1.387l-.735-1.86c-1.114.44-2.074 1.048-2.859 1.833l1.414 1.414zm2.192-1.392c.873-.356 1.995-.555 3.401-.555v-2c-1.58 0-2.978.222-4.158.704l.757 1.852z" fill="#936DFF"/></svg>