<svg width="81" height="81" fill="none" xmlns="http://www.w3.org/2000/svg"><path d="M7.426 21.405L40.5 2.309l33.074 19.096v38.19L40.5 78.691 7.426 59.595v-38.19z" stroke="#6132E4" stroke-width="4"/><path d="M37.29 30.5l-.453.892.006.002.447-.894zm3.605 3.255l-.851.525.005.008.005.009.841-.542zm0 9.905l-.86-.51.86.51zm-3.71 3.535l.478.878-.478-.878zm-10.815.14l.447-.894-.447.894zm-3.64-3.255l-.845.535.845-.535zm-.035-9.87l-.86-.51-.002.004.862.506zm3.71-3.535l.478.878.004-.002-.482-.876zm2.59 1.715l-.912-.41-.005.011.917.399zm-.49 11.795l-.961.275v.004l.961-.279zm1.47 2.8l.693-.72-.693.72zm4.655-1.54l.917.399.002-.005-.919-.394zm-.98-14.595l-.707.707.007.007.007.007.693-.721zm-1.645-.505c1.877 0 3.479.36 4.832 1.047l.906-1.784c-1.68-.853-3.602-1.263-5.738-1.263v2zm4.838 1.05c1.381.69 2.44 1.65 3.2 2.885l1.703-1.05c-.965-1.566-2.31-2.775-4.009-3.624l-.894 1.788zm3.211 2.902c.769 1.193 1.171 2.62 1.171 4.323h2c0-2.031-.485-3.847-1.49-5.406l-1.68 1.083zm1.171 4.323c0 1.7-.402 3.202-1.19 4.53l1.72 1.02c.985-1.659 1.47-3.518 1.47-5.55h-2zm-1.19 4.53c-.79 1.332-1.893 2.386-3.328 3.167l.956 1.756c1.738-.945 3.11-2.248 4.092-3.903l-1.72-1.02zm-3.328 3.167c-1.416.77-3.101 1.173-5.087 1.173v2c2.26 0 4.286-.46 6.043-1.417l-.956-1.756zM31.62 47.49c-1.826 0-3.42-.358-4.803-1.05l-.894 1.79c1.697.848 3.603 1.26 5.697 1.26v-2zm-4.803-1.05c-1.384-.691-2.457-1.655-3.242-2.895l-1.69 1.07c.988 1.56 2.342 2.766 4.038 3.614l.894-1.788zm-3.242-2.895c-.773-1.22-1.175-2.663-1.175-4.365h-2c0 2.032.485 3.855 1.485 5.435l1.69-1.07zM22.4 39.18c0-1.68.391-3.16 1.157-4.464l-1.724-1.012c-.961 1.636-1.433 3.47-1.433 5.476h2zm1.155-4.46c.79-1.332 1.893-2.386 3.328-3.167l-.956-1.756c-1.738.945-3.11 2.248-4.092 3.902l1.72 1.022zm3.332-3.17c1.441-.793 3.137-1.205 5.118-1.205v-2c-2.266 0-4.303.474-6.082 1.454l.964 1.752zm4.803-2.575c-1.684 0-2.836 1.289-3.607 3.005l1.824.82c.676-1.504 1.32-1.825 1.783-1.825v-2zm-3.612 3.016c-.778 1.79-1.133 4.175-1.133 7.084h2c0-2.785.345-4.856.967-6.286l-1.834-.798zm-1.133 7.084c0 2.148.19 3.954.599 5.385l1.922-.55c-.337-1.182-.521-2.783-.521-4.835h-2zm.6 5.39c.396 1.361.95 2.485 1.737 3.24l1.386-1.44c-.427-.412-.852-1.155-1.203-2.36l-1.92.56zm1.737 3.24c.753.725 1.644 1.155 2.653 1.155v-2c-.39 0-.806-.153-1.267-.596l-1.386 1.442zm2.653 1.155c1.706 0 2.86-1.285 3.612-3.016l-1.834-.798c-.648 1.49-1.29 1.814-1.778 1.814v2zm3.614-3.021c.776-1.81 1.131-4.204 1.131-7.114h-2c0 2.783-.345 4.87-.97 6.326l1.84.788zm1.131-7.114c0-2.147-.19-3.944-.6-5.354l-1.92.558c.336 1.157.52 2.743.52 4.796h2zm-.6-5.354c-.396-1.362-.95-2.486-1.737-3.242l-1.386 1.442c.427.41.852 1.154 1.203 2.358l1.92-.558zm-1.723-3.228c-.742-.742-1.64-1.168-2.667-1.168v2c.42 0 .829.158 1.253.582l1.414-1.414zm23.028-.798l.988-.152-.338-2.197-1.42 1.71.77.639zm.14.91l.77.637.286-.346-.068-.443-.988.152zm-11.62 14.07l-.895-.447 1.666 1.084-.771-.637zm.805-1.61v-1h-.618l-.277.553.895.447zm13.265-.315l.633.774-.633-.774zm.525-1.12v-1h-.841l-.145.829.986.171zm.805 0h1v-1h-1v1zm.14 6.055l-.217.976 1.306.29-.092-1.335-.997.069zm-1.505-.105l.029-1-.03 1zm-2.625-.035l-.025 1h.025v-1zM43.21 47.16h-1v1h1v-1zm0-.735l-.77-.639-.23.278v.361h1zm14.735-17.08h1v-1h-1v1zm0 23.59v1h1v-1h-1zm-4.9 0h-1v1h1v-1zm0-17.815l-.8-.6-.2.266v.334h1zm4.34-5.775v-1h-.5l-.3.4.8.6zm-.989.152l.14.91 1.977-.304-.14-.91-1.977.304zm.358.121l-11.62 14.07 1.542 1.274 11.62-14.07-1.542-1.274zm-9.955 15.154l.805-1.61-1.789-.894-.805 1.61 1.79.894zm-.09-1.057h11.446v-2H46.71v2zm11.446 0a8.08 8.08 0 001.343-.093c.35-.061.777-.175 1.11-.448l-1.267-1.548c.077-.063.072-.02-.184.025a6.155 6.155 0 01-1.002.064v2zm2.453-.541c.53-.434.767-1.091.877-1.723l-1.97-.342a1.734 1.734 0 01-.122.43c-.04.082-.064.097-.052.087l1.267 1.548zm-.108-.894h.805v-2H60.5v2zm-.195-1c0 1.59.011 2.837.035 3.736l2-.052c-.024-.874-.035-2.1-.035-3.684h-2zm.035 3.736c.024.897.06 1.694.107 2.388l1.995-.138a54.9 54.9 0 01-.103-2.302l-1.999.052zm1.322 1.343c-.323-.072-.93-.106-1.693-.129l-.059 2c.39.011.7.025.931.041a6.418 6.418 0 01.358.035l.029.005.434-1.952zm-1.693-.129a91.119 91.119 0 00-2.654-.035v2c.948 0 1.814.012 2.595.035l.059-2zm-2.63-.035a104.59 104.59 0 00-2.51-.035v2c.69 0 1.51.012 2.461.035l.049-2zm-2.51-.035H43.21v2h11.62v-2zm-10.62 1v-.735h-2v.735h2zm-.23-.096l14.175-17.08-1.539-1.278-14.175 17.08 1.54 1.278zm12.966-17.719v23.59h2v-23.59h-2zm1 22.59h-4.9v2h4.9v-2zm-3.9 1V35.12h-2v17.815h2zm-.2-17.214l4.34-5.775-1.6-1.202-4.34 5.775 1.6 1.202zm3.54-5.376h.56v-2h-.56v2z" fill="#936DFF"/></svg>