<svg width="21" height="38" fill="none" xmlns="http://www.w3.org/2000/svg"><path d="M9.884.286c5.7 0 10.312 4.612 10.312 10.312v19.688c0 4.143-3.356 7.5-7.5 7.5a7.498 7.498 0 01-7.5-7.5V11.045a4.69 4.69 0 014.688-4.688 4.69 4.69 0 014.687 4.688V28.41l-2.321-.09V10.786c-.357-2.911-4.643-2.554-4.643.303V30.5c0 2.063 2.938 4.965 5 4.965 2.063 0 5-1.785 5-5.178V10.598c0-4.777-4.104-7.634-7.723-7.634-3.619 0-6.741 2.679-6.741 6.298v18.88l-2.679.09V10.42c0-5.7 3.72-10.134 9.42-10.134z" fill="#6132E4"/></svg>